<svg width="33" height="43" viewBox="0 0 33 43" fill="none" xmlns="http://www.w3.org/2000/svg">
<path d="M31.5 15.1464C31.5 19.1354 29.6197 22.7242 26.6203 25.2207C26.5492 25.2758 26.4807 25.3309 26.4122 25.3884C24.05 27.3553 22.3831 29.9978 21.78 32.9806H11.22C10.6143 29.9835 8.93153 27.3265 6.55091 25.3596C6.50614 25.3237 6.46138 25.2853 6.41397 25.2494C3.39607 22.7506 1.5 19.1497 1.5 15.1464C1.5 7.60925 8.21524 1.5 16.5 1.5C24.7848 1.5 31.5 7.60925 31.5 15.1464Z" stroke="#D07B1A" stroke-width="3" stroke-miterlimit="10"/>
<path d="M23.3469 32.9806H9.18433V41.5H23.3469V32.9806Z" stroke="#D07B1A" stroke-width="3" stroke-linecap="round" stroke-linejoin="round"/>
<path d="M15.0095 32.9806L8.65771 12.9567L11.2174 15.3237L15.7153 12.3649L18.6279 15.5201L22.686 12.3649L18.6279 32.9806" stroke="#D07B1A" stroke-width="3" stroke-linecap="round" stroke-linejoin="round"/>
</svg>
