<svg width="13" height="13" viewBox="0 0 13 13" fill="none" xmlns="http://www.w3.org/2000/svg">
<path d="M4 9.375L6.25 7.125L8.5 9.375L9.375 8.5L7.125 6.25L9.375 4L8.5 3.125L6.25 5.375L4 3.125L3.125 4L5.375 6.25L3.125 8.5L4 9.375ZM6.25 12.5C5.38542 12.5 4.57292 12.3359 3.8125 12.0078C3.05208 11.6797 2.39062 11.2344 1.82812 10.6719C1.26562 10.1094 0.820313 9.44792 0.492188 8.6875C0.164062 7.92708 0 7.11458 0 6.25C0 5.38542 0.164062 4.57292 0.492188 3.8125C0.820313 3.05208 1.26562 2.39062 1.82812 1.82812C2.39062 1.26562 3.05208 0.820313 3.8125 0.492188C4.57292 0.164062 5.38542 0 6.25 0C7.11458 0 7.92708 0.164062 8.6875 0.492188C9.44792 0.820313 10.1094 1.26562 10.6719 1.82812C11.2344 2.39062 11.6797 3.05208 12.0078 3.8125C12.3359 4.57292 12.5 5.38542 12.5 6.25C12.5 7.11458 12.3359 7.92708 12.0078 8.6875C11.6797 9.44792 11.2344 10.1094 10.6719 10.6719C10.1094 11.2344 9.44792 11.6797 8.6875 12.0078C7.92708 12.3359 7.11458 12.5 6.25 12.5ZM6.25 11.25C7.64583 11.25 8.82813 10.7656 9.79688 9.79688C10.7656 8.82813 11.25 7.64583 11.25 6.25C11.25 4.85417 10.7656 3.67188 9.79688 2.70313C8.82813 1.73438 7.64583 1.25 6.25 1.25C4.85417 1.25 3.67188 1.73438 2.70313 2.70313C1.73438 3.67188 1.25 4.85417 1.25 6.25C1.25 7.64583 1.73438 8.82813 2.70313 9.79688C3.67188 10.7656 4.85417 11.25 6.25 11.25Z" fill="#D07B1A"/>
</svg>
